<svg width="72" height="115" viewBox="0 0 72 115" fill="none" xmlns="http://www.w3.org/2000/svg">
<mask id="mask0_2_2" style="mask-type:alpha" maskUnits="userSpaceOnUse" x="0" y="0" width="12" height="11">
<path d="M5.79052 10.425C8.67808 10.425 11.0189 8.09121 11.0189 5.21245C11.0189 2.33368 8.67808 0 5.79052 0C2.90297 0 0.562134 2.33368 0.562134 5.21245C0.562134 8.09121 2.90297 10.425 5.79052 10.425Z" fill="url(#paint0_linear_2_2)"/>
</mask>
<g mask="url(#mask0_2_2)">
<path d="M5.79052 10.425C8.67808 10.425 11.0189 8.09121 11.0189 5.21245C11.0189 2.33368 8.67808 0 5.79052 0C2.90297 0 0.562134 2.33368 0.562134 5.21245C0.562134 8.09121 2.90297 10.425 5.79052 10.425Z" fill="url(#paint1_linear_2_2)"/>
</g>
<mask id="mask1_2_2" style="mask-type:alpha" maskUnits="userSpaceOnUse" x="30" y="0" width="12" height="11">
<path d="M36.0716 10.425C38.9592 10.425 41.3 8.09121 41.3 5.21245C41.3 2.33368 38.9592 0 36.0716 0C33.184 0 30.8432 2.33368 30.8432 5.21245C30.8432 8.09121 33.184 10.425 36.0716 10.425Z" fill="url(#paint2_linear_2_2)"/>
</mask>
<g mask="url(#mask1_2_2)">
<path d="M36.0716 10.425C38.9592 10.425 41.3 8.09121 41.3 5.21245C41.3 2.33368 38.9592 0 36.0716 0C33.184 0 30.8432 2.33368 30.8432 5.21245C30.8432 8.09121 33.184 10.425 36.0716 10.425Z" fill="url(#paint3_linear_2_2)"/>
</g>
<mask id="mask2_2_2" style="mask-type:alpha" maskUnits="userSpaceOnUse" x="61" y="0" width="11" height="11">
<path d="M66.3526 10.425C69.2402 10.425 71.581 8.09121 71.581 5.21245C71.581 2.33368 69.2402 0 66.3526 0C63.4651 0 61.1243 2.33368 61.1243 5.21245C61.1243 8.09121 63.4651 10.425 66.3526 10.425Z" fill="url(#paint4_linear_2_2)"/>
</mask>
<g mask="url(#mask2_2_2)">
<path d="M66.3526 10.425C69.2402 10.425 71.581 8.09121 71.581 5.21245C71.581 2.33368 69.2402 0 66.3526 0C63.4651 0 61.1243 2.33368 61.1243 5.21245C61.1243 8.09121 63.4651 10.425 66.3526 10.425Z" fill="url(#paint5_linear_2_2)"/>
</g>
<mask id="mask3_2_2" style="mask-type:alpha" maskUnits="userSpaceOnUse" x="0" y="26" width="12" height="11">
<path d="M5.79052 36.5958C8.67808 36.5958 11.0189 34.2621 11.0189 31.3833C11.0189 28.5046 8.67808 26.1709 5.79052 26.1709C2.90297 26.1709 0.562134 28.5046 0.562134 31.3833C0.562134 34.2621 2.90297 36.5958 5.79052 36.5958Z" fill="url(#paint6_linear_2_2)"/>
</mask>
<g mask="url(#mask3_2_2)">
<path d="M5.79052 36.5958C8.67808 36.5958 11.0189 34.2621 11.0189 31.3833C11.0189 28.5046 8.67808 26.1709 5.79052 26.1709C2.90297 26.1709 0.562134 28.5046 0.562134 31.3833C0.562134 34.2621 2.90297 36.5958 5.79052 36.5958Z" fill="url(#paint7_linear_2_2)"/>
</g>
<mask id="mask4_2_2" style="mask-type:alpha" maskUnits="userSpaceOnUse" x="30" y="26" width="12" height="11">
<path d="M36.0716 36.5958C38.9592 36.5958 41.3 34.2621 41.3 31.3833C41.3 28.5046 38.9592 26.1709 36.0716 26.1709C33.184 26.1709 30.8432 28.5046 30.8432 31.3833C30.8432 34.2621 33.184 36.5958 36.0716 36.5958Z" fill="url(#paint8_linear_2_2)"/>
</mask>
<g mask="url(#mask4_2_2)">
<path d="M36.0716 36.5958C38.9592 36.5958 41.3 34.2621 41.3 31.3833C41.3 28.5046 38.9592 26.1709 36.0716 26.1709C33.184 26.1709 30.8432 28.5046 30.8432 31.3833C30.8432 34.2621 33.184 36.5958 36.0716 36.5958Z" fill="url(#paint9_linear_2_2)"/>
</g>
<mask id="mask5_2_2" style="mask-type:alpha" maskUnits="userSpaceOnUse" x="61" y="26" width="11" height="11">
<path d="M66.3526 36.5958C69.2402 36.5958 71.581 34.2621 71.581 31.3833C71.581 28.5046 69.2402 26.1709 66.3526 26.1709C63.4651 26.1709 61.1243 28.5046 61.1243 31.3833C61.1243 34.2621 63.4651 36.5958 66.3526 36.5958Z" fill="url(#paint10_linear_2_2)"/>
</mask>
<g mask="url(#mask5_2_2)">
<path d="M66.3526 36.5958C69.2402 36.5958 71.581 34.2621 71.581 31.3833C71.581 28.5046 69.2402 26.1709 66.3526 26.1709C63.4651 26.1709 61.1243 28.5046 61.1243 31.3833C61.1243 34.2621 63.4651 36.5958 66.3526 36.5958Z" fill="url(#paint11_linear_2_2)"/>
</g>
<mask id="mask6_2_2" style="mask-type:alpha" maskUnits="userSpaceOnUse" x="0" y="52" width="12" height="11">
<path d="M5.79052 62.7126C8.67808 62.7126 11.0189 60.3789 11.0189 57.5001C11.0189 54.6213 8.67808 52.2876 5.79052 52.2876C2.90297 52.2876 0.562134 54.6213 0.562134 57.5001C0.562134 60.3789 2.90297 62.7126 5.79052 62.7126Z" fill="url(#paint12_linear_2_2)"/>
</mask>
<g mask="url(#mask6_2_2)">
<path d="M5.79052 62.7126C8.67808 62.7126 11.0189 60.3789 11.0189 57.5001C11.0189 54.6213 8.67808 52.2876 5.79052 52.2876C2.90297 52.2876 0.562134 54.6213 0.562134 57.5001C0.562134 60.3789 2.90297 62.7126 5.79052 62.7126Z" fill="url(#paint13_linear_2_2)"/>
</g>
<mask id="mask7_2_2" style="mask-type:alpha" maskUnits="userSpaceOnUse" x="30" y="52" width="12" height="11">
<path d="M36.0716 62.7126C38.9592 62.7126 41.3 60.3789 41.3 57.5001C41.3 54.6213 38.9592 52.2876 36.0716 52.2876C33.184 52.2876 30.8432 54.6213 30.8432 57.5001C30.8432 60.3789 33.184 62.7126 36.0716 62.7126Z" fill="url(#paint14_linear_2_2)"/>
</mask>
<g mask="url(#mask7_2_2)">
<path d="M36.0716 62.7126C38.9592 62.7126 41.3 60.3789 41.3 57.5001C41.3 54.6213 38.9592 52.2876 36.0716 52.2876C33.184 52.2876 30.8432 54.6213 30.8432 57.5001C30.8432 60.3789 33.184 62.7126 36.0716 62.7126Z" fill="url(#paint15_linear_2_2)"/>
</g>
<mask id="mask8_2_2" style="mask-type:alpha" maskUnits="userSpaceOnUse" x="61" y="52" width="11" height="11">
<path d="M66.3526 62.7126C69.2402 62.7126 71.581 60.3789 71.581 57.5001C71.581 54.6213 69.2402 52.2876 66.3526 52.2876C63.4651 52.2876 61.1243 54.6213 61.1243 57.5001C61.1243 60.3789 63.4651 62.7126 66.3526 62.7126Z" fill="url(#paint16_linear_2_2)"/>
</mask>
<g mask="url(#mask8_2_2)">
<path d="M66.3526 62.7126C69.2402 62.7126 71.581 60.3789 71.581 57.5001C71.581 54.6213 69.2402 52.2876 66.3526 52.2876C63.4651 52.2876 61.1243 54.6213 61.1243 57.5001C61.1243 60.3789 63.4651 62.7126 66.3526 62.7126Z" fill="url(#paint17_linear_2_2)"/>
</g>
<mask id="mask9_2_2" style="mask-type:alpha" maskUnits="userSpaceOnUse" x="0" y="78" width="12" height="11">
<path d="M5.79052 88.8835C8.67808 88.8835 11.0189 86.5497 11.0189 83.6709C11.0189 80.7922 8.67808 78.4585 5.79052 78.4585C2.90297 78.4585 0.562134 80.7922 0.562134 83.6709C0.562134 86.5497 2.90297 88.8835 5.79052 88.8835Z" fill="url(#paint18_linear_2_2)"/>
</mask>
<g mask="url(#mask9_2_2)">
<path d="M5.79052 88.8835C8.67808 88.8835 11.0189 86.5497 11.0189 83.6709C11.0189 80.7922 8.67808 78.4585 5.79052 78.4585C2.90297 78.4585 0.562134 80.7922 0.562134 83.6709C0.562134 86.5497 2.90297 88.8835 5.79052 88.8835Z" fill="url(#paint19_linear_2_2)"/>
</g>
<mask id="mask10_2_2" style="mask-type:alpha" maskUnits="userSpaceOnUse" x="30" y="78" width="12" height="11">
<path d="M36.0716 88.8835C38.9592 88.8835 41.3 86.5497 41.3 83.6709C41.3 80.7922 38.9592 78.4585 36.0716 78.4585C33.184 78.4585 30.8432 80.7922 30.8432 83.6709C30.8432 86.5497 33.184 88.8835 36.0716 88.8835Z" fill="url(#paint20_linear_2_2)"/>
</mask>
<g mask="url(#mask10_2_2)">
<path d="M36.0716 88.8835C38.9592 88.8835 41.3 86.5497 41.3 83.6709C41.3 80.7922 38.9592 78.4585 36.0716 78.4585C33.184 78.4585 30.8432 80.7922 30.8432 83.6709C30.8432 86.5497 33.184 88.8835 36.0716 88.8835Z" fill="url(#paint21_linear_2_2)"/>
</g>
<mask id="mask11_2_2" style="mask-type:alpha" maskUnits="userSpaceOnUse" x="61" y="78" width="11" height="11">
<path d="M66.3526 88.8835C69.2402 88.8835 71.581 86.5497 71.581 83.6709C71.581 80.7922 69.2402 78.4585 66.3526 78.4585C63.4651 78.4585 61.1243 80.7922 61.1243 83.6709C61.1243 86.5497 63.4651 88.8835 66.3526 88.8835Z" fill="url(#paint22_linear_2_2)"/>
</mask>
<g mask="url(#mask11_2_2)">
<path d="M66.3526 88.8835C69.2402 88.8835 71.581 86.5497 71.581 83.6709C71.581 80.7922 69.2402 78.4585 66.3526 78.4585C63.4651 78.4585 61.1243 80.7922 61.1243 83.6709C61.1243 86.5497 63.4651 88.8835 66.3526 88.8835Z" fill="url(#paint23_linear_2_2)"/>
</g>
<mask id="mask12_2_2" style="mask-type:alpha" maskUnits="userSpaceOnUse" x="0" y="104" width="12" height="11">
<path d="M5.79052 115C8.67808 115 11.0189 112.666 11.0189 109.787C11.0189 106.909 8.67808 104.575 5.79052 104.575C2.90297 104.575 0.562134 106.909 0.562134 109.787C0.562134 112.666 2.90297 115 5.79052 115Z" fill="url(#paint24_linear_2_2)"/>
</mask>
<g mask="url(#mask12_2_2)">
<path d="M5.79052 115C8.67808 115 11.0189 112.666 11.0189 109.787C11.0189 106.909 8.67808 104.575 5.79052 104.575C2.90297 104.575 0.562134 106.909 0.562134 109.787C0.562134 112.666 2.90297 115 5.79052 115Z" fill="url(#paint25_linear_2_2)"/>
</g>
<mask id="mask13_2_2" style="mask-type:alpha" maskUnits="userSpaceOnUse" x="30" y="104" width="12" height="11">
<path d="M36.0716 115C38.9592 115 41.3 112.666 41.3 109.787C41.3 106.909 38.9592 104.575 36.0716 104.575C33.184 104.575 30.8432 106.909 30.8432 109.787C30.8432 112.666 33.184 115 36.0716 115Z" fill="url(#paint26_linear_2_2)"/>
</mask>
<g mask="url(#mask13_2_2)">
<path d="M36.0716 115C38.9592 115 41.3 112.666 41.3 109.787C41.3 106.909 38.9592 104.575 36.0716 104.575C33.184 104.575 30.8432 106.909 30.8432 109.787C30.8432 112.666 33.184 115 36.0716 115Z" fill="url(#paint27_linear_2_2)"/>
</g>
<mask id="mask14_2_2" style="mask-type:alpha" maskUnits="userSpaceOnUse" x="61" y="104" width="11" height="11">
<path d="M66.3526 115C69.2402 115 71.581 112.666 71.581 109.787C71.581 106.909 69.2402 104.575 66.3526 104.575C63.4651 104.575 61.1243 106.909 61.1243 109.787C61.1243 112.666 63.4651 115 66.3526 115Z" fill="url(#paint28_linear_2_2)"/>
</mask>
<g mask="url(#mask14_2_2)">
<path d="M66.3526 115C69.2402 115 71.581 112.666 71.581 109.787C71.581 106.909 69.2402 104.575 66.3526 104.575C63.4651 104.575 61.1243 106.909 61.1243 109.787C61.1243 112.666 63.4651 115 66.3526 115Z" fill="url(#paint29_linear_2_2)"/>
</g>
<defs>
<linearGradient id="paint0_linear_2_2" x1="47.4049" y1="110.551" x2="-23.9967" y2="-71.2526" gradientUnits="userSpaceOnUse">
<stop/>
<stop offset="1" stop-color="white"/>
</linearGradient>
<linearGradient id="paint1_linear_2_2" x1="47.4049" y1="110.551" x2="-23.9967" y2="-71.2526" gradientUnits="userSpaceOnUse">
<stop stop-color="#97C3F9"/>
<stop offset="1" stop-color="#93C1F9"/>
</linearGradient>
<linearGradient id="paint2_linear_2_2" x1="73.6091" y1="100.259" x2="2.20752" y2="-81.5444" gradientUnits="userSpaceOnUse">
<stop/>
<stop offset="1" stop-color="white"/>
</linearGradient>
<linearGradient id="paint3_linear_2_2" x1="73.6091" y1="100.259" x2="2.20752" y2="-81.5444" gradientUnits="userSpaceOnUse">
<stop stop-color="#97C3F9"/>
<stop offset="1" stop-color="#93C1F9"/>
</linearGradient>
<linearGradient id="paint4_linear_2_2" x1="99.8135" y1="89.9679" x2="28.4119" y2="-91.8359" gradientUnits="userSpaceOnUse">
<stop/>
<stop offset="1" stop-color="white"/>
</linearGradient>
<linearGradient id="paint5_linear_2_2" x1="99.8135" y1="89.9679" x2="28.4119" y2="-91.8359" gradientUnits="userSpaceOnUse">
<stop stop-color="#97C3F9"/>
<stop offset="1" stop-color="#93C1F9"/>
</linearGradient>
<linearGradient id="paint6_linear_2_2" x1="38.4624" y1="114.062" x2="-32.9379" y2="-67.7404" gradientUnits="userSpaceOnUse">
<stop/>
<stop offset="1" stop-color="white"/>
</linearGradient>
<linearGradient id="paint7_linear_2_2" x1="38.4624" y1="114.062" x2="-32.9379" y2="-67.7404" gradientUnits="userSpaceOnUse">
<stop stop-color="#97C3F9"/>
<stop offset="1" stop-color="#93C1F9"/>
</linearGradient>
<linearGradient id="paint8_linear_2_2" x1="64.6667" y1="103.771" x2="-6.73366" y2="-78.0318" gradientUnits="userSpaceOnUse">
<stop/>
<stop offset="1" stop-color="white"/>
</linearGradient>
<linearGradient id="paint9_linear_2_2" x1="64.6667" y1="103.771" x2="-6.73366" y2="-78.0318" gradientUnits="userSpaceOnUse">
<stop stop-color="#97C3F9"/>
<stop offset="1" stop-color="#93C1F9"/>
</linearGradient>
<linearGradient id="paint10_linear_2_2" x1="90.8711" y1="93.4793" x2="19.4707" y2="-88.3232" gradientUnits="userSpaceOnUse">
<stop/>
<stop offset="1" stop-color="white"/>
</linearGradient>
<linearGradient id="paint11_linear_2_2" x1="90.8711" y1="93.4793" x2="19.4707" y2="-88.3232" gradientUnits="userSpaceOnUse">
<stop stop-color="#97C3F9"/>
<stop offset="1" stop-color="#93C1F9"/>
</linearGradient>
<linearGradient id="paint12_linear_2_2" x1="29.5201" y1="117.575" x2="-41.8815" y2="-64.2287" gradientUnits="userSpaceOnUse">
<stop/>
<stop offset="1" stop-color="white"/>
</linearGradient>
<linearGradient id="paint13_linear_2_2" x1="29.5201" y1="117.575" x2="-41.8815" y2="-64.2287" gradientUnits="userSpaceOnUse">
<stop stop-color="#97C3F9"/>
<stop offset="1" stop-color="#93C1F9"/>
</linearGradient>
<linearGradient id="paint14_linear_2_2" x1="55.7243" y1="107.283" x2="-15.6773" y2="-74.5204" gradientUnits="userSpaceOnUse">
<stop/>
<stop offset="1" stop-color="white"/>
</linearGradient>
<linearGradient id="paint15_linear_2_2" x1="55.7243" y1="107.283" x2="-15.6773" y2="-74.5204" gradientUnits="userSpaceOnUse">
<stop stop-color="#97C3F9"/>
<stop offset="1" stop-color="#93C1F9"/>
</linearGradient>
<linearGradient id="paint16_linear_2_2" x1="81.9287" y1="96.992" x2="10.5271" y2="-84.8119" gradientUnits="userSpaceOnUse">
<stop/>
<stop offset="1" stop-color="white"/>
</linearGradient>
<linearGradient id="paint17_linear_2_2" x1="81.9287" y1="96.992" x2="10.5271" y2="-84.8119" gradientUnits="userSpaceOnUse">
<stop stop-color="#97C3F9"/>
<stop offset="1" stop-color="#93C1F9"/>
</linearGradient>
<linearGradient id="paint18_linear_2_2" x1="20.5777" y1="121.087" x2="-50.8239" y2="-60.7167" gradientUnits="userSpaceOnUse">
<stop/>
<stop offset="1" stop-color="white"/>
</linearGradient>
<linearGradient id="paint19_linear_2_2" x1="20.5777" y1="121.087" x2="-50.8239" y2="-60.7167" gradientUnits="userSpaceOnUse">
<stop stop-color="#97C3F9"/>
<stop offset="1" stop-color="#93C1F9"/>
</linearGradient>
<linearGradient id="paint20_linear_2_2" x1="46.782" y1="110.796" x2="-24.6196" y2="-71.0083" gradientUnits="userSpaceOnUse">
<stop/>
<stop offset="1" stop-color="white"/>
</linearGradient>
<linearGradient id="paint21_linear_2_2" x1="46.782" y1="110.796" x2="-24.6196" y2="-71.0083" gradientUnits="userSpaceOnUse">
<stop stop-color="#97C3F9"/>
<stop offset="1" stop-color="#93C1F9"/>
</linearGradient>
<linearGradient id="paint22_linear_2_2" x1="72.9863" y1="100.504" x2="1.58471" y2="-81.2999" gradientUnits="userSpaceOnUse">
<stop/>
<stop offset="1" stop-color="white"/>
</linearGradient>
<linearGradient id="paint23_linear_2_2" x1="72.9863" y1="100.504" x2="1.58471" y2="-81.2999" gradientUnits="userSpaceOnUse">
<stop stop-color="#97C3F9"/>
<stop offset="1" stop-color="#93C1F9"/>
</linearGradient>
<linearGradient id="paint24_linear_2_2" x1="11.6353" y1="124.599" x2="-59.7663" y2="-57.2048" gradientUnits="userSpaceOnUse">
<stop/>
<stop offset="1" stop-color="white"/>
</linearGradient>
<linearGradient id="paint25_linear_2_2" x1="11.6353" y1="124.599" x2="-59.7663" y2="-57.2048" gradientUnits="userSpaceOnUse">
<stop stop-color="#97C3F9"/>
<stop offset="1" stop-color="#93C1F9"/>
</linearGradient>
<linearGradient id="paint26_linear_2_2" x1="37.8397" y1="114.307" x2="-33.562" y2="-67.4964" gradientUnits="userSpaceOnUse">
<stop/>
<stop offset="1" stop-color="white"/>
</linearGradient>
<linearGradient id="paint27_linear_2_2" x1="37.8397" y1="114.307" x2="-33.562" y2="-67.4964" gradientUnits="userSpaceOnUse">
<stop stop-color="#97C3F9"/>
<stop offset="1" stop-color="#93C1F9"/>
</linearGradient>
<linearGradient id="paint28_linear_2_2" x1="64.044" y1="104.016" x2="-7.35763" y2="-77.7879" gradientUnits="userSpaceOnUse">
<stop/>
<stop offset="1" stop-color="white"/>
</linearGradient>
<linearGradient id="paint29_linear_2_2" x1="64.044" y1="104.016" x2="-7.35763" y2="-77.7879" gradientUnits="userSpaceOnUse">
<stop stop-color="#97C3F9"/>
<stop offset="1" stop-color="#93C1F9"/>
</linearGradient>
</defs>
</svg>
